# xmcd CD database file
#
# Track frame offsets:
#	150
#	11962
#	23089
#	33134
#	44564
#	55881
#	66756
#	77984
#	91019
#	100689
#	112119
#	121780
#	131900
#	142516
#	156246
#	166615
#	176849
#	187964
#	196284
#	205331
#
# Disc length: 2916 seconds
#
# Revision: 0
# Processed by: cddbd v1.5.2PL0 Copyright (c) Steve Scherf et al.
# Submitted via: CDex 1.51
#
DISCID=080b6214
DTITLE=Marty Robbins - Essential Gunfighter Ballads And More CD2
DYEAR=1900
DGENRE=Country
TTITLE0=That's All Right
TTITLE1=Singing The Blues
TTITLE2=Knee Deep In The Blues
TTITLE3=The Story Of My Life
TTITLE4=A White Sport Coat (And A Pink Carnation)
TTITLE5=She Was Only Seventeen (He Was One Year More)
TTITLE6=Kaw Liga
TTITLE7=The Hanging Tree
TTITLE8=Long Tall Sally
TTITLE9=Maybelline
TTITLE10=Just Married
TTITLE11=Wedding Bells
TTITLE12=Shackles And Chains
TTITLE13=The Hands You're Holding Now
TTITLE14=Then I Turned And Walked Slowly Away
TTITLE15=Waltz Of The Wind
TTITLE16=Judy
TTITLE17=Nothing But Sweet Lies
TTITLE18=Crying Steel Guitar Waltz
TTITLE19=Marty Robbins - Song Of The Islands
EXTD=
EXTT0=
EXTT1=
EXTT2=
EXTT3=
EXTT4=
EXTT5=
EXTT6=
EXTT7=
EXTT8=
EXTT9=
EXTT10=
EXTT11=
EXTT12=
EXTT13=
EXTT14=
EXTT15=
EXTT16=
EXTT17=
EXTT18=
EXTT19=
PLAYORDER=
